- 
http://www.Speed.Cd 
       
http://www.Speed.Cd      fast  and The Hottest Private Tracker on the net

(((--Registration will be open on june every weekend--)))

Please Seed back to make the speed Faster!!!

------------------nfo--------------------------
-








































          
          
              
              
                    
                    
                    
                    

Death.And.Cremation.2010.DVDRiP.XviD-SiC

Poster:
[img]http://img809.imageshack.us/img809/2550/deathcremation.jpg[/img]

IMDB Link:
http://www.imdb.com/title/tt1484954/

Description:
In a typical American suburb filled with middle class morals, a lonely 59-year-old, Stan, contributes to society by offering cremation services from his basement. In fact, Stan murders neighbors he perceives to be social bullies. Jarod, a fatherless 17-year-old high school outcast, lands an after-school job in Stan's cremation house and the two develop an unusual working relationship that quickly evolves into a partnership. As detective Matt Fairchild puts together clues from local disappearances, Stan must decide if protecting his newfound trainee is worth killing for.

MediaInfo:
General
Complete name                    : Death.And.Cremation.2010.DVDRiP.XviD-SiC.avi
Format                           : AVI
Format/Info                      : Audio Video Interleave
File size                        : 1.68 GiB
Duration                         : 1h 26mn
Overall bit rate                 : 2 766 Kbps

Video
ID                               : 0
Format                           : MPEG-4 Visual
Format profile                   : Advanced Simple@L5
Format settings, BVOP            : 1
Format settings, QPel            : No
Format settings, GMC             : No warppoints
Format settings, Matrix          : Default (H.263)
Codec ID                         : XVID
Codec ID/Hint                    : XviD
Duration                         : 1h 26mn
Bit rate                         : 2 535 Kbps
Width                            : 720 pixels
Height                           : 304 pixels
Display aspect ratio             : 2.35:1
Frame rate                       : 23.976 fps
Color space                      : YUV
Chroma subsampling               : 4:2:0
Bit depth                        : 8 bits
Scan type                        : Progressive
Compression mode                 : Lossy
Bits/(Pixel*Frame)               : 0.483
Stream size                      : 1.54 GiB (92%)
Writing library                  : XviD 1.2.1 (UTC 2008-12-04)

Audio
ID                               : 1
Format                           : AC-3
Format/Info                      : Audio Coding 3
Mode extension                   : CM (complete main)
Codec ID                         : 2000
Duration                         : 1h 26mn
Bit rate mode                    : Constant
Bit rate                         : 224 Kbps
Channel(s)                       : 2 channels
Channel positions                : Front: L R
Sampling rate                    : 48.0 KHz
Bit depth                        : 16 bits
Compression mode                 : Lossy
Stream size                      : 139 MiB (8%)
Alignment                        : Aligned on interleaves
Interleave, duration             : 64 ms (1.54 video frames)
Interleave, preload duration     : 192 ms
Title                            : VTS_05_1 T80 2_0ch 224Kbps DELAY 0ms

Screenshots:
[img]http://img685.imageshack.us/img685/7945/vlcsnap2011080311h31m29.png[/img]
[img]http://img847.imageshack.us/img847/7573/vlcsnap2011080311h31m16.png[/img]
[img]http://img812.imageshack.us/img812/493/vlcsnap2011080311h31m07.png[/img]
[img]http://img810.imageshack.us/img810/3815/vlcsnap2011080311h30m53.png[/img]
[img]http://img845.imageshack.us/img845/267/vlcsnap2011080311h30m48.png[/img]

Source: NTSC DVD5(Thanks)

Note: Came across a user ripped DVDR of this flick. Thanks to the og uploader of that file. Decided that this looked like a film that deserved the SiC treatment. Love Brad "Chucky" Dourif.

Encoder: thefuzz

Enjoy!

Respects to CaptainHomey, Cyanide, CM8, Rx, THC, ELEKTRI4KA, 
Killerhz, PA, YeFsTe, BoxSlots, MrRep and everyone in the struggle...